<svg width="64" height="64" viewBox="0 0 64 64" fill="none" xmlns="http://www.w3.org/2000/svg">
<g clip-path="url(#clip0_3366_298)">
<path d="M32 48.5C29.745 48.5 27.6138 48.0666 25.6063 47.1998C23.5988 46.333 21.8459 45.1505 20.3477 43.6523C18.8495 42.1541 17.667 40.4013 16.8002 38.3938C15.9334 36.3863 15.5 34.255 15.5 32C15.5 29.7175 15.9334 27.5796 16.8002 25.5864C17.667 23.5932 18.8495 21.847 20.3477 20.3477C21.8459 18.8484 23.5988 17.6659 25.6063 16.8002C27.6138 15.9345 29.745 15.5011 32 15.5C34.2825 15.5 36.4209 15.9334 38.4152 16.8002C40.4095 17.667 42.1552 18.8495 43.6523 20.3477C45.1494 21.8459 46.3319 23.5921 47.1998 25.5864C48.0677 27.5807 48.5011 29.7186 48.5 32C48.5 34.255 48.0666 36.3863 47.1998 38.3938C46.333 40.4013 45.1505 42.1547 43.6523 43.654C42.1541 45.1533 40.4079 46.3358 38.4136 47.2015C36.4193 48.0672 34.2814 48.5 32 48.5ZM32 45.1175C32.715 44.1275 33.3338 43.0962 33.8563 42.0237C34.3788 40.9512 34.805 39.81 35.135 38.6H28.865C29.195 39.81 29.6213 40.9512 30.1438 42.0237C30.6663 43.0962 31.285 44.1275 32 45.1175ZM27.71 44.4575C27.215 43.55 26.7821 42.6079 26.4114 41.6311C26.0407 40.6543 25.7311 39.6439 25.4825 38.6H20.615C21.4125 39.975 22.4096 41.1713 23.6064 42.1888C24.8032 43.2063 26.1711 43.9625 27.71 44.4575ZM36.29 44.4575C37.83 43.9625 39.1984 43.2063 40.3952 42.1888C41.592 41.1713 42.5886 39.975 43.385 38.6H38.5175C38.27 39.645 37.9609 40.6559 37.5902 41.6327C37.2195 42.6095 36.7861 43.5511 36.29 44.4575ZM19.2125 35.3H24.8225C24.74 34.75 24.6784 34.2072 24.6377 33.6715C24.597 33.1358 24.5761 32.5786 24.575 32C24.5739 31.4214 24.5948 30.8648 24.6377 30.3302C24.6806 29.7956 24.7422 29.2522 24.8225 28.7H19.2125C19.075 29.25 18.9721 29.7934 18.9039 30.3302C18.8357 30.867 18.8011 31.4236 18.8 32C18.7989 32.5764 18.8335 33.1336 18.9039 33.6715C18.9743 34.2094 19.0772 34.7522 19.2125 35.3ZM28.1225 35.3H35.8775C35.96 34.75 36.0222 34.2072 36.064 33.6715C36.1058 33.1358 36.1261 32.5786 36.125 32C36.1239 31.4214 36.103 30.8648 36.0623 30.3302C36.0216 29.7956 35.96 29.2522 35.8775 28.7H28.1225C28.04 29.25 27.9784 29.7934 27.9377 30.3302C27.897 30.867 27.8761 31.4236 27.875 32C27.8739 32.5764 27.8948 33.1336 27.9377 33.6715C27.9806 34.2094 28.0422 34.7522 28.1225 35.3ZM39.1775 35.3H44.7875C44.925 34.75 45.0284 34.2072 45.0977 33.6715C45.167 33.1358 45.2011 32.5786 45.2 32C45.1989 31.4214 45.1648 30.8648 45.0977 30.3302C45.0306 29.7956 44.9272 29.2522 44.7875 28.7H39.1775C39.26 29.25 39.3222 29.7934 39.364 30.3302C39.4058 30.867 39.4261 31.4236 39.425 32C39.4239 32.5764 39.403 33.1336 39.3623 33.6715C39.3216 34.2094 39.26 34.7522 39.1775 35.3ZM38.5175 25.4H43.385C42.5875 24.025 41.5909 22.8287 40.3952 21.8112C39.1995 20.7937 37.8311 20.0375 36.29 19.5425C36.785 20.45 37.2184 21.3921 37.5902 22.3689C37.962 23.3457 38.2711 24.3561 38.5175 25.4ZM28.865 25.4H35.135C34.805 24.19 34.3788 23.0488 33.8563 21.9763C33.3338 20.9038 32.715 19.8725 32 18.8825C31.285 19.8725 30.6663 20.9038 30.1438 21.9763C29.6213 23.0488 29.195 24.19 28.865 25.4ZM20.615 25.4H25.4825C25.73 24.355 26.0396 23.3441 26.4114 22.3673C26.7832 21.3905 27.2161 20.4489 27.71 19.5425C26.17 20.0375 24.8016 20.7937 23.6048 21.8112C22.408 22.8287 21.4114 24.025 20.615 25.4Z" fill="#FF3700"/>
<path d="M17.333 58.4001H11.4662C9.85298 58.4001 8.47237 57.8261 7.32441 56.6783C6.17645 55.5303 5.60159 54.1487 5.59961 52.5335V32.0001C5.59961 28.3335 6.29679 24.8995 7.69104 21.6983C9.0854 18.4969 10.9666 15.7103 13.3348 13.3383C15.703 10.9661 18.4896 9.08391 21.6948 7.69153C24.9 6.29926 28.3348 5.60208 31.9996 5.6001C35.6644 5.59812 39.0992 6.2953 42.3044 7.69153C45.5096 9.08787 48.2962 10.9691 50.6644 13.3353C53.0326 15.7015 54.9148 18.4881 56.311 21.6953C57.7074 24.9025 58.4036 28.3373 58.3996 32.0001V52.5335C58.3996 54.1467 57.8256 55.5283 56.6778 56.6783C55.5298 57.8281 54.1482 58.4021 52.533 58.4001H46.6662C45.053 58.4001 43.6724 57.8261 42.5244 56.6783C41.3765 55.5303 40.8016 54.1487 40.7996 52.5335V40.8001C40.7996 39.1867 41.3746 37.8061 42.5244 36.6583C43.6742 35.5103 45.0549 34.9353 46.6662 34.9335H52.533V32.0001C52.533 26.2801 50.5412 21.4283 46.5578 17.4449C42.5742 13.4615 37.7216 11.4687 31.9996 11.4667C26.2776 11.4649 21.426 13.4575 17.4444 17.4449C13.4628 21.4323 11.4702 26.2841 11.4662 32.0001V34.9335H17.333C18.9462 34.9335 20.3278 35.5083 21.4778 36.6583C22.6276 37.8081 23.2016 39.1887 23.1996 40.8001V52.5335C23.1996 54.1467 22.6256 55.5283 21.4778 56.6783C20.3298 57.8281 18.9482 58.4021 17.333 58.4001ZM17.333 40.8001H11.4662V52.5335H17.333V40.8001ZM46.6662 40.8001V52.5335H52.533V40.8001H46.6662Z" fill="#FF3700"/>
</g>
<defs>
<clipPath id="clip0_3366_298">
<rect width="64" height="64" fill="white"/>
</clipPath>
</defs>
</svg>
